<mxfile host="app.diagrams.net" modified="2020-09-09T05:30:01.315Z" agent="5.0 (Windows NT 10.0; Win64; x64) AppleWebKit/537.36 (KHTML, like Gecko) Chrome/85.0.4183.83 Safari/537.36" etag="A2l3yIqNesY1mPEx2vEe" version="13.6.6" type="github">
  <diagram id="EafqS6Ilopz6UOKkP6Sy" name="Page-1">
    <mxGraphModel dx="2249" dy="804" grid="1" gridSize="10" guides="1" tooltips="1" connect="1" arrows="1" fold="1" page="1" pageScale="1" pageWidth="827" pageHeight="1169" math="0" shadow="0">
      <root>
        <mxCell id="0" />
        <mxCell id="1" parent="0" />
        <mxCell id="R-OOEqFmgasEhCcjuppE-1" value="Animal" style="swimlane;fontStyle=1;childLayout=stackLayout;horizontal=1;startSize=26;fillColor=none;horizontalStack=0;resizeParent=1;resizeParentMax=0;resizeLast=0;collapsible=1;marginBottom=0;fontSize=18;fontColor=#FF0080;" vertex="1" parent="1">
          <mxGeometry x="300" y="140" width="140" height="78" as="geometry">
            <mxRectangle x="300" y="140" width="90" height="30" as="alternateBounds" />
          </mxGeometry>
        </mxCell>
        <mxCell id="R-OOEqFmgasEhCcjuppE-2" value="eat()" style="text;strokeColor=none;fillColor=none;align=left;verticalAlign=top;spacingLeft=4;spacingRight=4;overflow=hidden;rotatable=0;points=[[0,0.5],[1,0.5]];portConstraint=eastwest;fontSize=18;fontStyle=1" vertex="1" parent="R-OOEqFmgasEhCcjuppE-1">
          <mxGeometry y="26" width="140" height="26" as="geometry" />
        </mxCell>
        <mxCell id="R-OOEqFmgasEhCcjuppE-3" value="sleep()" style="text;strokeColor=none;fillColor=none;align=left;verticalAlign=top;spacingLeft=4;spacingRight=4;overflow=hidden;rotatable=0;points=[[0,0.5],[1,0.5]];portConstraint=eastwest;fontSize=18;fontStyle=1" vertex="1" parent="R-OOEqFmgasEhCcjuppE-1">
          <mxGeometry y="52" width="140" height="26" as="geometry" />
        </mxCell>
        <mxCell id="R-OOEqFmgasEhCcjuppE-5" value="Animal" style="swimlane;fontStyle=1;childLayout=stackLayout;horizontal=1;startSize=26;fillColor=none;horizontalStack=0;resizeParent=1;resizeParentMax=0;resizeLast=0;collapsible=1;marginBottom=0;fontSize=18;fontColor=#FF0080;" vertex="1" parent="1">
          <mxGeometry x="110" y="320" width="140" height="78" as="geometry">
            <mxRectangle x="300" y="140" width="90" height="30" as="alternateBounds" />
          </mxGeometry>
        </mxCell>
        <mxCell id="R-OOEqFmgasEhCcjuppE-6" value="eat()" style="text;strokeColor=none;fillColor=none;align=left;verticalAlign=top;spacingLeft=4;spacingRight=4;overflow=hidden;rotatable=0;points=[[0,0.5],[1,0.5]];portConstraint=eastwest;fontSize=18;fontStyle=1" vertex="1" parent="R-OOEqFmgasEhCcjuppE-5">
          <mxGeometry y="26" width="140" height="26" as="geometry" />
        </mxCell>
        <mxCell id="R-OOEqFmgasEhCcjuppE-7" value="sleep()" style="text;strokeColor=none;fillColor=none;align=left;verticalAlign=top;spacingLeft=4;spacingRight=4;overflow=hidden;rotatable=0;points=[[0,0.5],[1,0.5]];portConstraint=eastwest;fontSize=18;fontStyle=1" vertex="1" parent="R-OOEqFmgasEhCcjuppE-5">
          <mxGeometry y="52" width="140" height="26" as="geometry" />
        </mxCell>
        <mxCell id="R-OOEqFmgasEhCcjuppE-8" value="Animal" style="swimlane;fontStyle=1;childLayout=stackLayout;horizontal=1;startSize=26;fillColor=none;horizontalStack=0;resizeParent=1;resizeParentMax=0;resizeLast=0;collapsible=1;marginBottom=0;fontSize=18;fontColor=#FF0080;" vertex="1" parent="1">
          <mxGeometry x="300" y="320" width="140" height="78" as="geometry">
            <mxRectangle x="300" y="140" width="90" height="30" as="alternateBounds" />
          </mxGeometry>
        </mxCell>
        <mxCell id="R-OOEqFmgasEhCcjuppE-9" value="eat()" style="text;strokeColor=none;fillColor=none;align=left;verticalAlign=top;spacingLeft=4;spacingRight=4;overflow=hidden;rotatable=0;points=[[0,0.5],[1,0.5]];portConstraint=eastwest;fontSize=18;fontStyle=1" vertex="1" parent="R-OOEqFmgasEhCcjuppE-8">
          <mxGeometry y="26" width="140" height="26" as="geometry" />
        </mxCell>
        <mxCell id="R-OOEqFmgasEhCcjuppE-10" value="sleep()" style="text;strokeColor=none;fillColor=none;align=left;verticalAlign=top;spacingLeft=4;spacingRight=4;overflow=hidden;rotatable=0;points=[[0,0.5],[1,0.5]];portConstraint=eastwest;fontSize=18;fontStyle=1" vertex="1" parent="R-OOEqFmgasEhCcjuppE-8">
          <mxGeometry y="52" width="140" height="26" as="geometry" />
        </mxCell>
        <mxCell id="R-OOEqFmgasEhCcjuppE-11" value="Animal" style="swimlane;fontStyle=1;childLayout=stackLayout;horizontal=1;startSize=26;fillColor=none;horizontalStack=0;resizeParent=1;resizeParentMax=0;resizeLast=0;collapsible=1;marginBottom=0;fontSize=18;fontColor=#FF0080;" vertex="1" parent="1">
          <mxGeometry x="490" y="320" width="140" height="78" as="geometry">
            <mxRectangle x="300" y="140" width="90" height="30" as="alternateBounds" />
          </mxGeometry>
        </mxCell>
        <mxCell id="R-OOEqFmgasEhCcjuppE-12" value="eat()" style="text;strokeColor=none;fillColor=none;align=left;verticalAlign=top;spacingLeft=4;spacingRight=4;overflow=hidden;rotatable=0;points=[[0,0.5],[1,0.5]];portConstraint=eastwest;fontSize=18;fontStyle=1" vertex="1" parent="R-OOEqFmgasEhCcjuppE-11">
          <mxGeometry y="26" width="140" height="26" as="geometry" />
        </mxCell>
        <mxCell id="R-OOEqFmgasEhCcjuppE-13" value="sleep()" style="text;strokeColor=none;fillColor=none;align=left;verticalAlign=top;spacingLeft=4;spacingRight=4;overflow=hidden;rotatable=0;points=[[0,0.5],[1,0.5]];portConstraint=eastwest;fontSize=18;fontStyle=1" vertex="1" parent="R-OOEqFmgasEhCcjuppE-11">
          <mxGeometry y="52" width="140" height="26" as="geometry" />
        </mxCell>
        <mxCell id="R-OOEqFmgasEhCcjuppE-19" value="Extends" style="endArrow=block;endSize=16;endFill=0;html=1;fontSize=18;fontColor=#FF0080;entryX=0.5;entryY=1.154;entryDx=0;entryDy=0;entryPerimeter=0;exitX=0.5;exitY=0;exitDx=0;exitDy=0;edgeStyle=orthogonalEdgeStyle;" edge="1" parent="1" source="R-OOEqFmgasEhCcjuppE-5" target="R-OOEqFmgasEhCcjuppE-3">
          <mxGeometry x="-1" y="125" width="160" relative="1" as="geometry">
            <mxPoint x="190" y="620" as="sourcePoint" />
            <mxPoint x="350" y="620" as="targetPoint" />
            <Array as="points">
              <mxPoint x="180" y="280" />
              <mxPoint x="370" y="280" />
            </Array>
            <mxPoint x="-60" y="15" as="offset" />
          </mxGeometry>
        </mxCell>
        <mxCell id="R-OOEqFmgasEhCcjuppE-21" value="Extends" style="endArrow=block;endSize=16;endFill=0;html=1;fontSize=18;fontColor=#FF0080;exitX=0.5;exitY=0;exitDx=0;exitDy=0;edgeStyle=orthogonalEdgeStyle;" edge="1" parent="1" source="R-OOEqFmgasEhCcjuppE-11">
          <mxGeometry x="-1" y="226" width="160" relative="1" as="geometry">
            <mxPoint x="310" y="590" as="sourcePoint" />
            <mxPoint x="370" y="220" as="targetPoint" />
            <Array as="points">
              <mxPoint x="560" y="280" />
              <mxPoint x="370" y="280" />
            </Array>
            <mxPoint x="-220" y="176" as="offset" />
          </mxGeometry>
        </mxCell>
        <mxCell id="R-OOEqFmgasEhCcjuppE-22" value="Extends" style="endArrow=block;endSize=16;endFill=0;html=1;fontSize=18;fontColor=#FF0080;exitX=0.5;exitY=0;exitDx=0;exitDy=0;" edge="1" parent="1" source="R-OOEqFmgasEhCcjuppE-8">
          <mxGeometry x="-1" y="354" width="160" relative="1" as="geometry">
            <mxPoint x="280" y="510" as="sourcePoint" />
            <mxPoint x="370" y="220" as="targetPoint" />
            <mxPoint x="44" y="170" as="offset" />
          </mxGeometry>
        </mxCell>
      </root>
    </mxGraphModel>
  </diagram>
</mxfile>
